<?xml version="1.0" standalone="no"?>
<!DOCTYPE svg PUBLIC "-//W3C//DTD SVG 20010904//EN"
 "http://www.w3.org/TR/2001/REC-SVG-20010904/DTD/svg10.dtd">
<svg version="1.0" xmlns="http://www.w3.org/2000/svg"
 width="300.000000pt" height="300.000000pt" viewBox="0 0 300.000000 300.000000"
 preserveAspectRatio="xMidYMid meet">
<metadata>
Created by potrace 1.14, written by Peter Selinger 2001-2017
</metadata>
<g transform="translate(0.000000,300.000000) scale(0.100000,-0.100000)"
fill="#000000" stroke="none">
<path d="M945 2760 l-60 -5 300 -149 c165 -83 304 -152 308 -154 5 -2 8 13 7
34 -1 22 -1 44 0 49 0 6 2 56 3 112 2 86 -1 103 -15 112 -9 6 -19 7 -22 3 -4
-7 -26 -7 -103 1 -18 2 -33 -1 -33 -6 0 -4 -5 -5 -10 -2 -10 6 -83 9 -105 5
-5 -1 -14 -1 -20 0 -23 4 -136 2 -141 -3 -3 -3 -16 -3 -28 1 -11 4 -48 5 -81
2z"/>
<path d="M2093 2685 c-10 -25 -21 -45 -25 -45 -5 0 -8 -9 -8 -20 0 -11 -5 -20
-11 -20 -5 0 -8 -4 -5 -9 3 -5 -1 -14 -9 -21 -8 -7 -15 -19 -15 -27 0 -17 -36
-88 -59 -115 -8 -10 -11 -18 -7 -18 9 0 -35 -83 -46 -88 -5 -2 -8 -12 -8 -23
0 -10 -5 -19 -11 -19 -5 0 -8 -4 -5 -8 3 -5 -5 -24 -18 -43 -12 -19 -28 -49
-34 -66 l-11 -33 460 0 c253 0 458 3 455 8 -2 4 -73 41 -158 82 -84 41 -155
77 -158 80 -3 3 -69 36 -147 75 l-143 69 0 143 c0 79 -4 143 -9 143 -5 0 -17
-20 -28 -45z"/>
<path d="M832 2693 c2 -8 -192 -403 -202 -413 -3 -3 -20 -38 -39 -77 l-35 -73
-128 0 c-130 0 -145 -5 -113 -36 8 -9 15 -13 15 -10 0 3 27 -8 60 -25 33 -16
62 -29 66 -29 4 1 10 -4 15 -12 5 -7 12 -13 16 -13 4 -1 18 -6 31 -13 12 -7
22 -9 22 -5 0 4 5 1 10 -7 5 -8 13 -15 17 -15 22 -2 59 -20 70 -34 7 -9 13
-12 13 -8 0 4 10 2 23 -5 12 -7 26 -12 30 -13 4 0 11 -6 16 -13 5 -8 11 -13
15 -12 16 5 65 -23 59 -34 -3 -6 -3 -8 2 -4 4 4 14 3 22 -3 7 -6 13 -8 13 -5
0 4 9 2 20 -4 20 -11 20 -8 20 430 0 433 0 440 -20 440 -11 0 -19 -3 -18 -7z"/>
<path d="M2715 2039 c-16 -33 -31 -65 -31 -70 -1 -5 -2 -14 -3 -20 0 -5 -5 -8
-9 -5 -4 2 -14 -10 -21 -27 -8 -18 -53 -111 -101 -207 -108 -220 -105 -210
-77 -209 12 0 40 -1 62 -2 22 0 45 0 50 1 6 1 48 1 93 0 54 -1 82 2 78 9 -4 5
-2 12 3 15 4 3 5 24 1 46 -4 22 -5 40 -1 40 3 0 5 37 3 82 -2 46 -2 94 -1 108
2 30 1 44 -3 93 -2 20 -1 37 2 37 7 0 4 130 -4 137 -3 3 -1 12 5 20 9 10 8 13
-2 13 -8 0 -27 -28 -44 -61z"/>
<path d="M1094 1980 c-3 -2 -21 -3 -40 -1 l-35 3 1 -114 c1 -62 1 -117 0 -123
-5 -35 3 -171 10 -178 10 -11 70 -16 70 -5 0 4 6 5 13 2 24 -9 97 -10 97 -1 0
4 5 5 10 2 15 -9 110 -12 110 -3 0 4 8 4 17 1 15 -6 37 -7 89 -4 12 1 14 4 6
14 -7 8 -7 18 -2 27 5 8 5 21 0 31 -5 9 -6 19 -3 23 8 8 8 68 0 89 -3 9 -2 19
3 22 6 4 7 13 1 24 -6 10 -6 23 -1 31 5 8 5 21 -1 31 -6 11 -5 20 1 24 6 4 6
15 0 30 -6 16 -6 25 0 25 5 0 6 9 1 23 -6 17 -18 23 -55 28 -26 3 -49 3 -51 0
-2 -4 -56 -4 -120 -1 -64 3 -119 3 -121 0z"/>
<path d="M1565 1970 c-7 -9 -10 -23 -5 -35 4 -11 4 -31 0 -45 -4 -14 -4 -34 0
-45 4 -11 4 -32 0 -46 -4 -15 -4 -32 0 -40 5 -7 5 -20 1 -28 -5 -9 -5 -25 -1
-36 4 -11 4 -34 0 -51 -4 -18 -4 -38 1 -45 4 -7 6 -16 3 -21 -8 -13 32 -28 43
-17 8 8 13 8 17 0 5 -7 15 -7 31 -1 14 5 25 6 25 2 0 -4 29 -7 65 -7 36 0 65
3 65 7 0 4 8 4 17 1 9 -4 30 -6 45 -6 15 1 46 2 69 2 36 1 40 4 39 24 -1 12
-1 27 0 32 2 9 2 26 -1 115 -1 19 0 40 1 45 1 6 1 28 1 50 -1 22 -1 65 -1 96
1 49 -2 57 -20 62 -11 3 -22 2 -24 -2 -3 -4 -30 -4 -61 -1 -31 3 -58 4 -60 1
-1 -3 -56 -4 -120 -1 -96 4 -119 2 -130 -10z"/>
<path d="M455 1501 c-2 -2 -51 -3 -108 -2 -96 2 -105 0 -109 -17 -3 -11 -2
-25 2 -31 3 -7 4 -31 0 -55 -3 -24 -3 -51 1 -62 3 -10 4 -23 1 -28 -4 -8 -6
-119 -2 -141 1 -6 1 -14 0 -20 -4 -22 -1 -95 5 -105 3 -5 2 -10 -2 -10 -5 0
-8 -15 -6 -32 2 -18 4 -51 3 -73 -1 -37 0 -39 13 -20 21 29 107 211 107 224 0
7 5 9 10 6 6 -3 10 1 10 9 0 8 7 22 16 30 10 11 11 16 3 16 -8 0 -7 5 3 18 20
22 78 133 78 148 0 6 9 23 21 38 11 14 18 26 14 26 -4 0 3 15 14 34 12 18 21
36 21 39 0 6 -90 14 -95 8z"/>
<path d="M1055 1441 c-11 -5 -26 -6 -34 -3 -10 4 -11 1 -3 -14 5 -10 6 -28 2
-39 -4 -11 -4 -30 1 -41 4 -12 5 -24 2 -27 -4 -5 -5 -41 -2 -157 0 -8 0 -20
-1 -25 -1 -6 -2 -33 -1 -62 1 -42 4 -52 19 -52 9 0 35 -1 57 -2 22 0 45 0 50
1 6 1 51 1 100 0 50 -1 109 -2 132 -3 48 0 79 18 63 38 -7 9 -8 15 -1 19 7 5
7 15 1 32 -6 14 -7 23 -2 21 4 -3 7 8 7 24 0 16 -4 29 -8 29 -5 0 -6 4 -3 9 9
14 11 135 2 149 -4 7 -3 12 1 12 5 0 8 16 8 36 -2 39 -29 70 -49 56 -6 -5 -22
-7 -36 -5 -47 6 -190 8 -190 3 0 -6 -59 -4 -80 3 -8 3 -24 2 -35 -2z"/>
<path d="M1650 1440 c0 -3 -20 -4 -45 -2 l-45 4 -2 -38 c0 -22 0 -46 1 -54 5
-45 6 -80 1 -80 -6 0 -4 -80 3 -86 3 -3 1 -19 -4 -36 -5 -19 -5 -38 1 -49 7
-12 7 -20 0 -24 -6 -4 -7 -12 -3 -18 7 -11 9 -15 12 -34 1 -7 164 -8 181 -2 3
1 9 1 13 0 13 -2 131 -3 142 -1 6 1 25 1 43 0 30 -1 38 7 32 35 -3 12 -3 66 0
80 1 6 1 28 1 50 0 22 -1 73 -2 113 -1 40 1 75 3 78 10 9 -5 56 -20 61 -18 8
-75 8 -88 2 -5 -3 -20 -4 -34 -2 -32 5 -49 6 -80 4 -14 -1 -44 -1 -68 1 -23 2
-42 1 -42 -2z"/>
<path d="M2130 725 c0 -250 3 -455 8 -455 8 0 62 100 62 117 0 6 3 13 8 15 4
1 32 55 62 118 30 63 57 117 60 120 3 3 30 56 60 117 l54 112 150 3 151 3 -60
30 c-33 17 -61 33 -63 38 -2 4 -9 7 -15 7 -11 0 -70 29 -157 75 -19 11 -39 18
-44 17 -5 -2 -12 1 -15 6 -3 5 -35 24 -71 41 -36 18 -73 37 -84 43 -10 5 -38
18 -62 29 l-44 18 0 -454z"/>
<path d="M260 865 c0 -5 271 -143 287 -147 5 -1 28 -13 53 -27 25 -14 83 -44
130 -66 47 -22 87 -43 90 -46 3 -4 14 -8 25 -10 24 -5 22 5 24 -165 1 -120 3
-135 16 -124 8 7 15 19 15 27 0 7 6 16 14 19 8 3 12 13 9 25 -3 10 -1 19 4 19
6 0 21 25 34 55 13 30 28 55 32 55 5 0 7 6 4 14 -3 8 1 20 9 26 8 7 14 21 14
32 0 10 5 16 10 13 5 -3 10 0 10 8 0 18 41 99 55 109 6 4 7 8 3 8 -4 0 10 33
31 74 21 40 41 81 44 90 6 15 -34 16 -453 16 -253 0 -460 -2 -460 -5z"/>
<path d="M1505 540 c-3 -5 -5 -59 -4 -119 1 -60 -1 -113 -3 -118 -3 -4 -1 -22
4 -40 7 -29 11 -31 32 -23 13 5 26 7 29 4 7 -8 78 -11 82 -4 5 8 49 5 63 -4 5
-3 23 -1 41 4 17 5 31 5 31 0 0 -4 15 -4 34 0 18 4 40 4 48 -1 8 -4 30 -4 50
0 20 5 41 5 48 1 6 -4 29 -4 50 0 21 4 44 4 51 0 8 -4 22 -5 32 -1 15 5 9 12
-30 31 -26 13 -60 32 -74 42 -14 11 -33 20 -41 22 -20 2 -91 38 -99 49 -3 5
-12 10 -20 11 -23 5 -154 69 -157 78 -2 4 -10 8 -17 8 -7 0 -42 16 -78 35 -40
21 -68 31 -72 25z"/>
</g>
</svg>
